<svg aria-hidden="true" style="position: absolute; width: 0; height: 0; overflow: hidden;" version="1.1" xmlns="http://www.w3.org/2000/svg" xmlns:xlink="http://www.w3.org/1999/xlink">
<defs>
<symbol id="icon-r-arrow" viewBox="0 0 14 32">
<path fill="#666" style="fill: var(--color2, #666)" d="M13.555 17.143c0 0.143-0.091 0.303-0.228 0.411l-10.616 8.322c-0.137 0.107-0.342 0.178-0.524 0.178s-0.387-0.072-0.524-0.178l-1.139-0.893c-0.137-0.107-0.228-0.25-0.228-0.411 0-0.143 0.091-0.303 0.228-0.411l8.953-7.018-8.953-7.018c-0.137-0.107-0.228-0.268-0.228-0.411s0.091-0.303 0.228-0.411l1.139-0.893c0.137-0.107 0.342-0.178 0.524-0.178s0.387 0.072 0.524 0.178l10.616 8.322c0.137 0.107 0.228 0.268 0.228 0.411v-0z"></path>
</symbol>
<symbol id="icon-l-arrow" viewBox="0 0 21 32">
<path fill="#666" style="fill: var(--color2, #666)" d="M21.326 2.667c0 0.256-0.147 0.545-0.366 0.737l-14.395 12.596 14.395 12.596c0.22 0.192 0.366 0.481 0.366 0.737s-0.147 0.545-0.366 0.737l-1.831 1.602c-0.22 0.192-0.549 0.32-0.843 0.32s-0.623-0.128-0.843-0.32l-17.070-14.936c-0.22-0.192-0.366-0.481-0.366-0.737s0.147-0.545 0.366-0.737l17.070-14.936c0.22-0.193 0.549-0.32 0.843-0.32s0.623 0.128 0.843 0.32l1.831 1.602c0.22 0.193 0.366 0.449 0.366 0.737v0.001z"></path>
</symbol>
<symbol id="icon-instagram" viewBox="0 0 32 32">
<path fill="#134731" style="fill: var(--color3, #134731)" d="M16.009 2.882c4.278 0 4.784 0.019 6.466 0.094 1.563 0.069 2.408 0.331 2.971 0.55 0.744 0.288 1.282 0.638 1.838 1.194 0.563 0.563 0.907 1.094 1.201 1.838 0.219 0.563 0.482 1.413 0.55 2.969 0.075 1.688 0.094 2.194 0.094 6.464s-0.019 4.782-0.094 6.464c-0.069 1.563-0.331 2.407-0.55 2.969-0.288 0.744-0.638 1.282-1.194 1.838-0.563 0.563-1.094 0.906-1.839 1.2-0.563 0.219-1.413 0.481-2.97 0.55-1.689 0.075-2.195 0.094-6.466 0.094s-4.784-0.019-6.466-0.094c-1.563-0.069-2.408-0.331-2.97-0.55-0.744-0.287-1.282-0.638-1.839-1.194-0.563-0.563-0.907-1.094-1.201-1.838-0.219-0.563-0.482-1.413-0.55-2.969-0.075-1.688-0.094-2.194-0.094-6.464s0.019-4.782 0.094-6.464c0.069-1.563 0.331-2.407 0.55-2.969 0.288-0.744 0.638-1.282 1.194-1.838 0.563-0.563 1.094-0.906 1.839-1.2 0.563-0.219 1.413-0.481 2.97-0.55 1.682-0.075 2.189-0.094 6.466-0.094v0zM16.009 0c-4.346 0-4.89 0.019-6.598 0.094-1.701 0.075-2.87 0.35-3.884 0.744-1.057 0.413-1.951 0.956-2.839 1.85-0.894 0.888-1.438 1.782-1.851 2.832-0.394 1.019-0.669 2.182-0.744 3.882-0.075 1.713-0.094 2.257-0.094 6.601s0.019 4.889 0.094 6.595c0.075 1.7 0.35 2.869 0.744 3.882 0.413 1.056 0.957 1.95 1.851 2.838 0.888 0.888 1.782 1.438 2.833 1.844 1.019 0.394 2.183 0.669 3.884 0.744 1.707 0.075 2.251 0.094 6.598 0.094s4.89-0.019 6.598-0.094c1.701-0.075 2.87-0.35 3.884-0.744 1.051-0.406 1.945-0.956 2.833-1.844s1.438-1.782 1.845-2.832c0.394-1.019 0.669-2.182 0.744-3.882 0.075-1.707 0.094-2.25 0.094-6.595s-0.019-4.888-0.094-6.595c-0.075-1.7-0.35-2.869-0.744-3.882-0.394-1.063-0.938-1.957-1.832-2.844-0.888-0.888-1.782-1.438-2.833-1.844-1.019-0.394-2.183-0.669-3.884-0.744-1.713-0.081-2.258-0.1-6.604-0.1v0z"></path>
<path fill="#134731" style="fill: var(--color3, #134731)" d="M16.009 7.783c-4.54 0-8.224 3.682-8.224 8.22s3.683 8.22 8.224 8.22 8.224-3.682 8.224-8.22c0-4.538-3.683-8.22-8.224-8.22zM16.009 21.335c-2.945 0-5.334-2.388-5.334-5.332s2.389-5.332 5.334-5.332c2.945 0 5.334 2.388 5.334 5.332s-2.389 5.332-5.334 5.332z"></path>
<path fill="#134731" style="fill: var(--color3, #134731)" d="M26.478 7.458c0 1.060-0.86 1.919-1.92 1.919s-1.92-0.859-1.92-1.919c0-1.060 0.86-1.919 1.92-1.919s1.92 0.859 1.92 1.919z"></path>
</symbol>
<symbol id="icon-telegram" viewBox="0 0 36 32">
<path fill="#134731" style="fill: var(--color3, #134731)" d="M32.598 1.051l-31.432 12.772c-1.265 0.595-1.693 1.786-0.306 2.432l8.064 2.7 19.497-12.697c1.065-0.797 2.154-0.585 1.217 0.292l-16.745 15.976-0.526 6.761c0.487 1.044 1.379 1.049 1.948 0.53l4.633-4.619 7.934 6.261c1.843 1.15 2.846 0.408 3.242-1.699l5.204-25.967c0.54-2.594-0.381-3.736-2.73-2.743z"></path>
</symbol>
<symbol id="icon-pinterest" viewBox="0 0 25 32">
<path fill="#134731" style="fill: var(--color3, #134731)" d="M12.812 1.127c-8.356 0-12.569 5.991-12.569 10.987 0 3.028 1.148 5.717 3.602 6.718 0.404 0.166 0.764 0.007 0.881-0.437 0.081-0.31 0.273-1.092 0.36-1.416 0.12-0.437 0.073-0.593-0.25-0.978-0.71-0.834-1.161-1.92-1.161-3.45 0-4.444 3.324-8.422 8.659-8.422 4.724 0 7.32 2.89 7.32 6.739 0 5.073-2.246 9.351-5.578 9.351-1.841 0-3.218-1.521-2.775-3.388 0.529-2.233 1.553-4.636 1.553-6.242 0-1.44-0.775-2.639-2.37-2.639-1.88 0-3.394 1.944-3.394 4.551 0 1.661 0.564 2.784 0.564 2.784s-1.927 8.156-2.264 9.584c-0.671 2.844-0.101 6.333-0.049 6.686 0.025 0.206 0.295 0.259 0.415 0.101 0.173-0.227 2.416-2.997 3.175-5.758 0.219-0.782 1.239-4.83 1.239-4.83 0.615 1.163 2.396 2.188 4.296 2.188 5.655 0 9.489-5.151 9.489-12.055-0.006-5.215-4.425-10.074-11.141-10.074h-0.001z"></path>
</symbol>
<symbol id="icon-facebook" viewBox="0 0 18 32">
<path fill="#134731" style="fill: var(--color3, #134731)" d="M12.19 12.19h5.714v5.714h-5.714v13.333h-5.714v-13.333h-5.714v-5.714h5.714v-2.39c0-2.264 0.713-5.126 2.13-6.69 1.417-1.567 3.187-2.349 5.307-2.349h3.993v5.714h-4c-0.949 0-1.714 0.766-1.714 1.713v4.001h-0.001z"></path>
</symbol>
</defs>
</svg>
